<?xml version="1.0" standalone="yes"?>
<svg xmlns="http://www.w3.org/2000/svg" width="644" height="354" fill="#000000">
<path d="M370 1L371 2L370 1M438 1L439 2L438 1M641 2L642 3L641 2z"/>
<path d="M290 3C283.138 5.02829 275.153 4.37253 268 5.28549C252.224 7.29901 236.254 10.5548 221 15.0355C156.963 33.8449 103.466 71.9702 56.9961 119C41.5613 134.621 27.4745 151.951 14.9753 170C11.3576 175.224 3.29664 183.364 2.96682 190C2.65425 196.289 13.9321 204.931 18 209C33.8159 224.822 49.9802 239.766 67 254.272C141.851 318.068 244.903 358.263 344 341.715C431.936 327.03 510.358 234.514 474.448 144C469.776 132.224 463.934 120.79 455.75 111.015C437.226 88.8877 411.171 75.5193 383 70.2608C372.13 68.2318 360.612 69.5265 350 67L350 68C378.75 79.959 402.612 90.523 421.611 117C462.863 174.487 436.784 253.506 377 285.75C351.817 299.333 325.008 302 297 302C241.75 302 185.054 286.633 138 257.333C115.091 243.068 92.9079 227.483 74.0278 208C69.3167 203.138 57.0488 194.103 56.5556 187C56.2546 182.667 61.4474 177.462 63.6111 174C70.5978 162.821 78.6892 152.526 86.5833 142C121.249 95.7796 168.51 57.325 220 31.2222C237.177 22.5146 255.425 14.6776 274 9.38889C276.917 8.55847 291.034 5.50348 290 3z"/>
<path d="M448 3L449 4L448 3M82 6L83 7L82 6M212 6L213 7L212 6M252 7L253 8L252 7M31 10L32 11L31 10z"/>
<path d="M301 288L301 287C226.666 271.657 181.021 188.823 218.309 120C238.614 82.5212 276.843 60.8074 318 54.4244C392.981 42.7956 479.09 72.4802 538 118.011C551.994 128.827 564.805 140.275 577.04 153.004C580.632 156.741 588.219 162.384 588.613 168C589.012 173.704 581.659 181.511 578.667 186C568.2 201.7 556.865 217.103 544.086 231C490.261 289.533 427.462 329.462 351 351C356.959 353.495 366.644 351.046 373 350.285C390.219 348.226 407.436 345.892 424 340.519C490.384 318.984 550.269 282.155 596.424 229C609.058 214.451 621.783 199.97 632.656 184C636.3 178.647 642.817 171.788 642.901 165.004C642.976 158.956 636.872 153.983 632.985 150C622.589 139.346 612.06 128.785 601 118.831C552.231 74.9378 497.499 39.5476 434 21.4275C355.418 -0.996765 257.236 3.18652 200.289 69C152.638 124.069 146.526 216.764 210 263.243C236.157 282.397 269.317 288 301 288z"/>
<path d="M425.667 12.3333L426.333 12.6667L425.667 12.3333M562 12L563 13L562 12M152 15L151 17L152 15M62 20L63 21L62 20M148 21L149 22L148 21M557 25L558 26L557 25M466 26L467 27L466 26M93 28L94 29L93 28M459 28L460 29L459 28M478 32L479 33L478 32M147 33L148 34L147 33M563 38L564 39L563 38M641 38L642 39L641 38M52 39L53 40L52 39M122 55L123 56L122 55M28 57L29 58L28 57M633 60L634 61L633 60M401 64L402 65L401 64M395 65L396 66L395 65M295 66L296 67L295 66M380 66L381 67L380 66M572 67L573 68L572 67M611 70L612 71L611 70M173 71L174 72L173 71M272 71L273 72L272 71M43 73L44 74L43 73M35 74L36 75L35 74M79 75L80 76L79 75M333 87L334 88L333 87M575 88L576 89L575 88M323 92L324 93L323 92M392 94L393 95L392 94M248 97L249 98L248 97M291 97L292 98L291 97M391 102L392 103L391 102M164 108L165 109L164 108M325 111L326 112L325 111M613 113L614 114L613 113M246 114L247 115L246 114M299 119L300 120L299 119M511 119L512 120L511 119M329 121L330 122L329 121M227 124L228 125L227 124M488 124L489 125L488 124z"/>
<path d="M314 127.465C307.226 128.684 300.751 131.513 295 135.243C250.046 164.401 279.675 236.802 332 227.384C339.124 226.102 346.037 223.352 352 219.226C395.709 188.982 366.285 118.054 314 127.465z"/>
<path d="M226 132L227 133L226 132M0 133L1 134L0 133M353 133L354 134L353 133M533 134L534 135L533 134M500 135L501 136L500 135M155 140L156 141L155 140M152 141L153 142L152 141M219 141L220 142L219 141M424 141L425 142L424 141M505 142L506 143L505 142M544 142L545 143L544 142M11 143L12 144L11 143M266 143L267 144L266 143M521 143L522 144L521 143M563 147L564 148L563 147M261 149L262 150L261 149M213 156L214 157L213 156M409 160L410 161L409 160M540 162L541 163L540 162M526 168L527 169L526 168M520 175L521 176L520 175M123 181L124 182L123 181M2 185L3 186L2 185M75 185L76 186L75 185M386 185L387 186L386 185M496 186L497 187L496 186M396 187L397 188L396 187M426 191L427 192L426 191M100 193L101 194L100 193M395 193L396 194L395 193M497 194L498 195L497 194M274 198L275 199L274 198M383 204L384 205L383 204M387 210L388 211L387 210M235 211L236 212L235 211M394 211L395 212L394 211M514 213L515 214L514 213M167 216L168 217L167 216M169 218L170 219L169 218M250 224L251 225L250 224M259 228L260 229L259 228M123 234L124 235L123 234M286 238L287 239L286 238M599 238L600 239L599 238M421 239L422 240L421 239M262 245L263 246L262 245M43 246L44 247L43 246M263 249L264 250L263 249M332 249L333 250L332 249M345 253L346 254L345 253M632 256L633 257L632 256M601 257L602 258L601 257M377 259L378 260L377 259M1 266L2 267L1 266M160 266L161 267L160 266M383 267L384 268L383 267M7 268L8 269L7 268M281 271L282 272L281 271M602 271L603 272L602 271M490 272L491 273L490 272M368 274L369 275L368 274M17 275L18 276L17 275M481 277L482 278L481 277M480 280L481 281L480 280M542 281L543 282L542 281M201 282L202 283L201 282M486 283L487 284L486 283M573 283L574 284L573 283M579 283L580 284L579 283M548 285L549 286L548 285M84 286L85 287L84 286M318 286L319 287L318 286M594 288L595 289L594 288M574 289L575 290L574 289M585 291L586 292L585 291M545 293L546 294L545 293M122 294L123 295L122 294M623 295L624 296L623 295M532 296L533 297L532 296M334 298L335 299L334 298M109 302L110 303L109 302M533 307L534 308L533 307M605 310L606 311L605 310M3 311L4 312L3 311M55 311L56 312L55 311M508 313L509 314L508 313M513 315L514 316L513 315M596 319L597 320L596 319M641 322L642 323L641 322M21 323L22 324L21 323M462 329L463 330L462 329M492 332L493 333L492 332M103 335L104 336L103 335M170 336L171 337L170 336M462 337L463 338L462 337M106 344L107 345L106 344M422 345L423 346L422 345M212 346L213 347L212 346M452 346L453 347L452 346M281 347L282 348L281 347M149 349L150 350L149 349M461 349L462 350L461 349M170 353L171 354L170 353z"/>
</svg>
